<svg version="1.2" baseProfile="tiny-ps" xmlns="http://www.w3.org/2000/svg" viewBox="0 0 562 211" width="562" height="211">
	<title>ISOVER_CMYK-ai</title>
	<style>
		tspan { white-space:pre }
		.shp0 { fill: #ffffff } 
		.shp1 { fill: #ffd036 } 
		.shp2 { fill: #2c2e35 } 
	</style>
	<g id="Calque 1">
		<g id="&lt;Group&gt;">
			<g id="&lt;Group&gt;">
				<path id="&lt;Path&gt;" class="shp0" d="M0.29 0.81L561.51 0.81L561.51 211L0.29 211L0.29 0.81Z" />
			</g>
			<g id="&lt;Group&gt;">
				<g id="&lt;Group&gt;">
					<g id="&lt;Group&gt;">
						<path id="&lt;Path&gt;" class="shp1" d="M156.18 83.72C156.18 56.08 178.63 33.69 206.27 33.69C233.9 33.69 256.22 56.08 256.22 83.72C256.22 111.22 233.9 133.55 206.27 133.55C178.63 133.55 156.18 111.22 156.18 83.72Z" />
						<path id="&lt;Path&gt;" class="shp2" d="M62.1 39.99C59.42 66.09 58.38 92.07 58.17 127.54L28.1 127.54C31.34 98.44 32.61 69.31 32.81 39.99L62.1 39.99Z" />
						<path id="&lt;Compound Path&gt;" class="shp2" d="M67.45 106.94C76.82 110.25 86.52 113.41 96.48 113.41C102.81 113.41 111.93 111.68 111.93 104.22C111.93 91.92 73.5 82.31 73.5 62C73.5 47.51 85.13 37.87 111.93 37.87C121.92 37.87 132.03 39.06 141.96 40.69L143.16 58.69C136.49 56.19 129.13 54.13 121.11 54.13C112.73 54.13 104.19 54.97 104.19 62.56C104.19 73.61 142.57 84.1 142.57 105.78C142.57 124.05 119.27 129.64 102.15 129.64C91.25 129.64 80.27 128.06 69.66 126.02L67.45 106.94Z" />
						<path id="&lt;Compound Path&gt;" class="shp2" d="M311 107.72L310.55 108.36L338.39 39.99L368.69 39.99C353 68.97 338.9 98.12 324.76 127.54L294.09 127.54C283.22 98.12 270.71 69.31 258.84 39.99L287.9 39.99L311 107.72Z" />
						<path id="&lt;Compound Path&gt;" fill-rule="evenodd" class="shp2" d="M388.13 85.14L388.13 87.97C388.13 104.22 400.91 113.41 419.18 113.41C430.76 113.41 441.87 110.81 452.87 107.77L449.24 126.34C438.41 128.38 427.51 129.64 416.38 129.64C364.14 129.64 359.91 98.93 359.91 86.86C359.91 70.82 367 37.87 414.66 37.87C442.05 37.87 462.07 49.78 462.07 74.91C462.07 78.64 461.47 82.31 460.82 85.14L388.13 85.14ZM388.19 82.62C400.53 76.69 415.7 73.72 433.72 73.72C434.36 73.72 434.8 73.57 435.05 73.26C435.05 59.67 429.54 52.47 414.04 52.47C399.87 52.47 390.74 61.84 388.96 73.26L388.19 82.62Z" />
						<path id="&lt;Compound Path&gt;" class="shp2" d="M495.67 56.94L496.06 56.94C501.35 46.37 510.67 37.87 523.27 37.87C526.31 37.87 530.67 38.42 533.53 38.97L532.89 59.3C529.19 58.36 525.71 57.61 521.85 57.61C507.33 57.61 498.93 65.95 496.06 78.24C493.84 87.79 493.62 106.32 493.62 116.59L493.62 127.54L465.4 127.54C467.22 102.63 469.25 79.2 469.25 39.99L496.27 39.99L495.67 56.94Z" />
						<g id="&lt;Group&gt;">
							<path id="&lt;Path&gt;" class="shp2" d="M191.89 120.87C192.7 121.38 193.48 121.81 194.33 122.21L188.07 123.61C186.82 123.41 185.64 123.19 184.51 122.88L191.89 120.87Z" />
							<path id="&lt;Path&gt;" class="shp2" d="M186.36 117.08C186.97 117.55 187.58 118.02 188.27 118.46L177.59 120.9C176.88 120.63 176.22 120.36 175.56 120.11L186.36 117.08Z" />
							<path id="&lt;Path&gt;" class="shp2" d="M183.5 114.62L170.04 117.6C169.53 117.31 169.03 117.05 168.51 116.78L181.99 113.09C182.47 113.6 182.96 114.16 183.5 114.62Z" />
							<path id="&lt;Path&gt;" class="shp2" d="M178.39 108.89C178.8 109.47 179.23 109.98 179.69 110.51L164.03 114.05C163.6 113.72 163.19 113.41 162.78 113.09L178.39 108.89Z" />
							<path id="&lt;Path&gt;" class="shp2" d="M175.41 104.45C175.77 105.01 176.12 105.55 176.48 106.15L159.03 110.13C158.66 109.82 158.28 109.54 157.95 109.19L175.41 104.45Z" />
							<path id="&lt;Path&gt;" class="shp2" d="M171.25 95.09C171.49 95.88 171.75 96.64 172.01 97.38L151.67 101.85C151.46 101.42 151.2 101.05 150.93 100.63L171.25 95.09Z" />
							<path id="&lt;Path&gt;" class="shp2" d="M173.08 100C173.38 100.6 173.68 101.17 173.97 101.8L154.94 106.01C154.66 105.69 154.38 105.4 154.12 105.11L173.08 100Z" />
							<path id="&lt;Path&gt;" class="shp2" d="M170.1 90.28C170.26 91.17 170.41 91.87 170.61 92.77L149.03 97.59C148.81 97.17 148.6 96.69 148.38 96.25L170.1 90.28Z" />
							<path id="&lt;Path&gt;" class="shp2" d="M169.74 87.52C169.76 87.71 169.76 87.88 169.79 88.08L146.97 93.17C146.76 92.65 146.57 92.07 146.4 91.54L169.57 85.17C169.62 86.01 169.65 86.76 169.74 87.52Z" />
							<path id="&lt;Path&gt;" class="shp2" d="M169.65 79.91C169.57 81.02 169.52 82.11 169.52 83.15L145.46 88.59C145.3 88 145.11 87.37 144.99 86.8L169.65 79.91Z" />
							<path id="&lt;Path&gt;" class="shp2" d="M170.41 74.48C170.15 75.64 169.96 76.83 169.82 77.97L144.46 83.84C144.4 83.42 144.38 83.01 144.3 82.62C144.29 82.32 144.25 82.11 144.25 81.84L170.41 74.48Z" />
							<path id="&lt;Path&gt;" class="shp2" d="M172.03 68.81C171.55 70.18 171.12 71.52 170.75 72.88L144.11 78.89C144.07 77.97 144.12 77.26 144.16 76.47L172.03 68.81Z" />
							<path id="&lt;Path&gt;" class="shp2" d="M174.79 62.75C173.95 64.38 173.14 65.95 172.45 67.64L144.36 73.82C144.46 72.93 144.6 72.06 144.78 71.09L174.79 62.75Z" />
							<path id="&lt;Path&gt;" class="shp2" d="M241.03 40.69C233.17 37.38 224.14 35.88 214.69 36.92C197.15 38.64 182.56 48.58 175.12 62.14L145.33 68.74C145.62 67.64 145.97 66.51 146.29 65.49L173.47 57.83L147.03 63.37C147.56 62.03 148.15 60.78 148.77 59.43L168.01 53.89L149.6 57.92C150.52 56.24 151.51 54.7 152.56 53.15L162.59 50.25L153.31 52.12C162.65 39.86 178.24 30.91 196.54 28.97C213.52 27.26 229.51 31.83 241.03 40.69Z" />
						</g>
						<g id="&lt;Group&gt;">
							<path id="&lt;Path&gt;" class="shp2" d="M219.6 44.62C218.79 44.19 217.95 43.71 217.14 43.26L223.42 41.94C224.58 42.08 225.73 42.31 226.93 42.57L219.6 44.62Z" />
							<path id="&lt;Path&gt;" class="shp2" d="M225.01 48.33C224.43 47.87 223.85 47.42 223.23 46.98L233.95 44.57C234.62 44.83 235.32 45.05 236 45.31L225.01 48.33Z" />
							<path id="&lt;Path&gt;" class="shp2" d="M227.91 50.88L241.42 47.83C241.92 48.1 242.38 48.33 242.89 48.62L229.46 52.36C228.92 51.89 228.4 51.38 227.91 50.88Z" />
							<path id="&lt;Path&gt;" class="shp2" d="M233.22 56.6C232.78 56.07 232.31 55.47 231.81 54.95L247.5 51.45C247.88 51.76 248.3 52.02 248.71 52.32L233.22 56.6Z" />
							<path id="&lt;Path&gt;" class="shp2" d="M236.14 61C235.78 60.42 235.44 59.79 235.08 59.22L252.36 55.27C252.74 55.61 253.09 55.91 253.48 56.28L236.14 61Z" />
							<path id="&lt;Path&gt;" class="shp2" d="M240.21 70.39C239.95 69.66 239.7 68.88 239.38 68.13L259.81 63.52C260.1 63.92 260.36 64.36 260.66 64.79L240.21 70.39Z" />
							<path id="&lt;Path&gt;" class="shp2" d="M238.33 65.54C238.05 64.91 237.8 64.26 237.54 63.59L256.42 59.3C256.69 59.62 256.96 59.97 257.26 60.31L238.33 65.54Z" />
							<path id="&lt;Path&gt;" class="shp2" d="M241.36 75.28C241.2 74.44 241.03 73.55 240.86 72.74L262.53 67.95C262.78 68.32 263 68.81 263.2 69.25L241.36 75.28Z" />
							<path id="&lt;Path&gt;" class="shp2" d="M241.76 77.97C241.74 77.82 241.71 77.65 241.68 77.48L264.6 72.33C264.82 72.8 265.03 73.3 265.15 73.81L241.93 80.37C241.88 79.66 241.82 78.89 241.76 77.97Z" />
							<path id="&lt;Path&gt;" class="shp2" d="M241.83 85.65C241.92 84.52 241.98 83.52 241.98 82.44L266.03 76.98C266.21 77.51 266.32 78.1 266.43 78.76L241.83 85.65Z" />
							<path id="&lt;Path&gt;" class="shp2" d="M241.09 91.1C241.31 89.9 241.51 88.74 241.66 87.52L266.96 81.78C267.01 82.14 267.09 82.55 267.12 82.97C267.14 83.22 267.16 83.48 267.21 83.79L241.09 91.1Z" />
							<path id="&lt;Path&gt;" class="shp2" d="M239.42 96.73C239.92 95.35 240.37 93.93 240.74 92.57L267.35 86.76C267.35 87.49 267.32 88.33 267.29 89.09L239.42 96.73Z" />
							<path id="&lt;Path&gt;" class="shp2" d="M236.82 102.69C237.64 101.05 238.33 99.49 238.94 97.93L267.12 91.51C266.99 92.45 266.88 93.45 266.67 94.32L236.82 102.69Z" />
							<path id="&lt;Path&gt;" class="shp2" d="M170.5 124.92C178.49 128.21 187.39 129.64 196.81 128.65C214.31 126.83 228.91 116.84 236.48 103.27L266.16 96.76C265.92 97.89 265.64 98.9 265.3 100L238.05 107.64L264.6 101.99C264 103.32 263.47 104.65 262.83 105.89L243.49 111.59L261.99 107.55C261.14 109.21 260.06 110.75 258.98 112.26L248.97 115.19L258.26 113.32C248.93 125.68 233.46 134.5 214.99 136.48C198 138.25 182.02 133.62 170.5 124.92Z" />
						</g>
					</g>
				</g>
			</g>
		</g>
		<g id="&lt;Group&gt;">
			<g id="&lt;Group&gt;">
				<g id="&lt;Group&gt;">
					<g id="&lt;Group&gt;">
						<path id="&lt;Compound Path&gt;" class="shp2" d="M495.67 56.94L496.06 56.94C501.35 46.37 510.67 37.87 523.27 37.87C526.31 37.87 530.67 38.42 533.53 38.97L532.89 59.3C529.19 58.36 525.71 57.61 521.85 57.61C507.32 57.61 498.93 65.94 496.06 78.24C493.84 87.79 493.62 106.32 493.62 116.59L493.62 127.54L465.4 127.54C467.22 102.63 469.25 79.2 469.25 39.99L496.27 39.99L495.67 56.94Z" />
					</g>
				</g>
			</g>
		</g>
		<g id="&lt;Group&gt;">
			<path id="&lt;Path&gt;" class="shp2" d="M266.83 175.44C266.83 180.09 262.76 183.23 256.72 183.23C253.13 183.23 249.34 181.69 246.83 179.21C246.34 178.74 246.25 177.99 246.59 177.41L247.38 176.1C247.61 175.7 248.02 175.44 248.47 175.39C248.92 175.34 249.36 175.52 249.7 175.83C251.4 177.39 254.19 178.76 256.75 178.76C259.43 178.76 262.29 177.89 262.29 175.46C262.31 173.04 260.53 172.26 256.47 171.04C252.58 169.87 247.74 168.42 247.74 162.69C247.74 158.28 251.62 155.31 257.39 155.31C260.14 155.31 263.17 156.18 265.31 157.58C265.94 157.99 266.15 158.8 265.82 159.47L265.14 160.82C264.96 161.2 264.62 161.48 264.21 161.58C263.81 161.69 263.38 161.63 263.03 161.4C261.54 160.42 259.35 159.82 257.32 159.82C254.99 159.82 252.28 160.54 252.28 162.58C252.28 164.86 254.02 165.63 258.01 166.84C261.96 168.03 266.87 169.53 266.83 175.44Z" />
			<path id="&lt;Compound Path&gt;" fill-rule="evenodd" class="shp2" d="M296.04 181.11C296.25 181.57 296.22 182.1 295.94 182.52C295.67 182.94 295.21 183.19 294.71 183.19L293.07 183.19C292.5 183.19 291.98 182.86 291.74 182.33L288.89 176.11L276.23 176.11L273.42 182.33C273.18 182.85 272.66 183.19 272.08 183.19L270.45 183.19C269.95 183.19 269.48 182.94 269.21 182.52C268.94 182.1 268.9 181.57 269.11 181.11L280.39 156.25C280.62 155.72 281.15 155.39 281.72 155.39L283.32 155.39C283.9 155.39 284.42 155.72 284.66 156.24L296.04 181.11ZM286.87 171.68L282.51 162.12L278.2 171.68L286.87 171.68Z" />
			<path id="&lt;Path&gt;" class="shp2" d="M304.89 156.86L304.89 181.72C304.89 182.54 304.23 183.19 303.42 183.19L301.93 183.19C301.12 183.19 300.46 182.54 300.46 181.72L300.46 156.86C300.46 156.04 301.12 155.39 301.93 155.39L303.42 155.39C304.23 155.39 304.89 156.04 304.89 156.86Z" />
			<path id="&lt;Path&gt;" class="shp2" d="M335.91 156.86L335.91 181.72C335.91 182.54 335.26 183.19 334.44 183.19L332.7 183.19C332.23 183.19 331.79 182.97 331.52 182.59L317.59 163.62L317.59 181.72C317.59 182.54 316.94 183.19 316.12 183.19L314.63 183.19C313.82 183.19 313.16 182.54 313.16 181.72L313.16 156.86C313.16 156.04 313.82 155.39 314.63 155.39L316.37 155.39C316.84 155.39 317.28 155.61 317.56 155.98L331.52 174.97L331.52 156.86C331.52 156.04 332.17 155.39 332.99 155.39L334.44 155.39C335.26 155.39 335.91 156.04 335.91 156.86Z" />
			<path id="&lt;Path&gt;" class="shp2" d="M361.56 156.86L361.56 158.32C361.56 159.12 360.9 159.78 360.09 159.78L353.17 159.78L353.17 181.72C353.17 182.54 352.51 183.19 351.69 183.19L350.2 183.19C349.39 183.19 348.73 182.54 348.73 181.72L348.73 159.78L341.81 159.78C340.99 159.78 340.34 159.12 340.34 158.32L340.34 156.86C340.34 156.04 340.99 155.39 341.81 155.39L360.09 155.39C360.9 155.39 361.56 156.04 361.56 156.86Z" />
			<path id="&lt;Path&gt;" class="shp2" d="M372.5 170.41L372.5 171.62C372.5 172.43 371.84 173.09 371.03 173.09L363.09 173.09C362.28 173.09 361.62 172.43 361.62 171.62L361.62 170.41C361.62 169.6 362.28 168.94 363.09 168.94L371.03 168.94C371.84 168.94 372.5 169.6 372.5 170.41Z" />
			<path id="&lt;Path&gt;" class="shp2" d="M403.4 169.52L403.4 178.52C403.4 178.95 403.21 179.36 402.88 179.63C400.23 181.92 396.67 183.23 393.1 183.23C385.21 183.23 378.79 176.97 378.79 169.27C378.79 161.59 385.24 155.35 393.17 155.35C396.77 155.35 400.22 156.64 402.89 158.99C403.49 159.51 403.56 160.4 403.07 161.02L402.18 162.12C401.93 162.43 401.56 162.63 401.15 162.66C400.75 162.7 400.36 162.56 400.06 162.29C398.23 160.65 395.72 159.71 393.17 159.71C387.69 159.71 383.22 164 383.22 169.27C383.22 174.56 387.69 178.86 393.17 178.86C395.29 178.86 397.37 178.22 399.11 177.03L399.11 172.49L396.13 172.49C395.32 172.49 394.66 171.83 394.66 171.01L394.66 169.52C394.66 168.71 395.32 168.05 396.13 168.05L400.55 168.05C400.56 168.05 400.56 168.05 400.57 168.05L401.93 168.05C402.74 168.05 403.4 168.71 403.4 169.52Z" />
			<path id="&lt;Compound Path&gt;" fill-rule="evenodd" class="shp2" d="M437.12 169.27C437.12 176.97 430.68 183.23 422.77 183.23C414.86 183.23 408.42 176.97 408.42 169.27C408.42 161.59 414.86 155.35 422.77 155.35C430.68 155.35 437.12 161.59 437.12 169.27ZM432.65 169.27C432.65 164.02 428.22 159.75 422.77 159.75C417.32 159.75 412.89 164.02 412.89 169.27C412.89 174.54 417.32 178.83 422.77 178.83C428.22 178.83 432.65 174.54 432.65 169.27Z" />
			<path id="&lt;Compound Path&gt;" fill-rule="evenodd" class="shp2" d="M464.24 175.04C464.24 180.14 460.35 183.19 453.84 183.19L443.59 183.19C442.78 183.19 442.13 182.53 442.13 181.72L442.13 156.85C442.13 156.04 442.78 155.39 443.59 155.39L453.77 155.39C459.46 155.39 462.99 158.31 462.99 163.01C462.99 165.32 462.16 167.21 460.67 168.5C462.93 169.85 464.24 172.15 464.24 175.04ZM458.56 163.19C458.56 160.37 455.93 159.78 453.73 159.78L446.56 159.78L446.56 166.66L453.73 166.66C456.94 166.66 458.56 165.49 458.56 163.19ZM446.56 178.79L453.73 178.79C456.5 178.79 459.8 178.11 459.8 174.86C459.8 171.55 456 171.06 453.73 171.06L446.56 171.06L446.56 178.79Z" />
			<path id="&lt;Compound Path&gt;" fill-rule="evenodd" class="shp2" d="M493.67 181.11C493.87 181.57 493.84 182.1 493.57 182.52C493.3 182.94 492.83 183.19 492.33 183.19L490.69 183.19C490.12 183.19 489.6 182.86 489.36 182.33L486.51 176.11L473.86 176.11L471.04 182.33C470.81 182.85 470.28 183.19 469.71 183.19L468.07 183.19C467.57 183.19 467.1 182.94 466.83 182.52C466.56 182.1 466.52 181.57 466.73 181.11L478.01 156.25C478.24 155.72 478.77 155.39 479.34 155.39L480.95 155.39C481.52 155.39 482.04 155.72 482.28 156.24L493.67 181.11ZM484.49 171.68L480.13 162.12L475.82 171.68L484.49 171.68Z" />
			<path id="&lt;Path&gt;" class="shp2" d="M502.52 156.86L502.52 181.72C502.52 182.54 501.86 183.19 501.04 183.19L499.55 183.19C498.74 183.19 498.08 182.54 498.08 181.72L498.08 156.86C498.08 156.04 498.74 155.39 499.55 155.39L501.04 155.39C501.86 155.39 502.52 156.04 502.52 156.86Z" />
			<path id="&lt;Path&gt;" class="shp2" d="M533.53 156.86L533.53 181.72C533.53 182.54 532.88 183.19 532.07 183.19L530.32 183.19C529.85 183.19 529.41 182.97 529.14 182.59L515.21 163.62L515.21 181.72C515.21 182.54 514.56 183.19 513.74 183.19L512.25 183.19C511.44 183.19 510.78 182.54 510.78 181.72L510.78 156.86C510.78 156.04 511.44 155.39 512.25 155.39L513.99 155.39C514.46 155.39 514.9 155.61 515.18 155.98L529.14 174.97L529.14 156.86C529.14 156.04 529.79 155.39 530.61 155.39L532.07 155.39C532.88 155.39 533.53 156.04 533.53 156.86Z" />
		</g>
	</g>
</svg>